<svg width="716" height="100" viewBox="0 0 716 100" fill="none" xmlns="http://www.w3.org/2000/svg">
<g clip-path="url(#clip0_4_99)">
<path d="M0 1.91248H19.8926V28.3915L38.9701 1.91248H62.8545L31.1528 34.2961L90.5644 1.91248V24.4164L38.4213 43.627L90.5644 39.236V60.6421L38.4213 56.2511L90.5644 75.4618V97.9657L31.1528 65.582L62.8545 97.9657H38.9701L19.8926 71.4866V97.9657H0V1.91248Z" fill="black"/>
<path d="M102.64 1.91248H126.79L122.948 62.0226L148.745 1.91248H168.788V97.9657H144.637L148.479 37.8555L122.682 97.9657H102.64V1.91248Z" fill="black"/>
<path d="M180.846 1.91248H204.731V38.421H221.48V1.91248H245.364V97.9657H221.48V54.6045H204.731V97.9657H180.846V1.91248Z" fill="black"/>
<path d="M254.396 49.9476C254.396 22.5038 267.984 -0.00012207 292.002 -0.00012207C316.019 -0.00012207 329.608 22.5038 329.608 49.9476C329.608 77.3914 316.019 99.8952 292.002 99.8952C267.984 99.8952 254.396 77.3914 254.396 49.9476ZM292.002 84.5267C298.871 84.5267 303.944 71.4868 303.944 49.9476C303.944 28.4084 298.871 15.3684 292.002 15.3684C285.133 15.3684 280.06 28.4084 280.06 49.9476C280.06 71.4868 285.133 84.5267 292.002 84.5267Z" fill="black"/>
<path d="M338.656 1.91248H403.157V97.9657H379.273V18.1126H362.524V97.9823H338.639V1.91248H338.656Z" fill="black"/>
<path d="M412.205 49.9476C412.205 22.5038 425.794 -0.00012207 449.812 -0.00012207C473.829 -0.00012207 487.418 22.5038 487.418 49.9476C487.418 77.3914 473.829 99.8952 449.812 99.8952C425.794 99.8952 412.205 77.3914 412.205 49.9476ZM449.795 84.5267C456.664 84.5267 461.737 71.4868 461.737 49.9476C461.737 28.4084 456.664 15.3684 449.795 15.3684C442.926 15.3684 437.853 28.4084 437.853 49.9476C437.853 71.4868 442.942 84.5267 449.795 84.5267Z" fill="black"/>
<path d="M496.449 1.91248H520.6L516.758 62.0226L542.555 1.91248H562.597V97.9657H538.446L542.289 37.8555L516.491 97.9657H496.449V1.91248Z" fill="black"/>
<path d="M619.131 64.0853L641.918 67.3785L641.236 70.6718C637.527 88.5185 626.965 99.8952 608.437 99.8952C584.419 99.8952 571.662 77.3914 571.662 49.9476C571.662 22.5038 584.419 -0.00012207 608.437 -0.00012207C626.283 -0.00012207 636.978 11.3932 640.953 28.1256L641.635 31.003L618.3 35.9429C616.653 22.6369 612.944 15.3518 608.42 15.3518C601.152 15.3518 597.309 30.0384 597.309 49.9309C597.309 69.8235 601.152 84.5101 608.42 84.5101C613.493 84.5267 617.485 76.7094 619.131 64.0853Z" fill="black"/>
<path d="M649.586 1.91248H673.737V41.8473L690.619 1.91248H715.318L689.105 48.4338L716 97.9657H689.238L673.737 58.0308V97.9657H649.586V1.91248V1.91248Z" fill="black"/>
</g>
<defs>
<clipPath id="clip0_4_99">
<rect width="716" height="100" fill="white"/>
</clipPath>
</defs>
</svg>
